<?xml version="1.0" standalone="no"?>
<!DOCTYPE svg PUBLIC "-//W3C//DTD SVG 20010904//EN"
 "http://www.w3.org/TR/2001/REC-SVG-20010904/DTD/svg10.dtd">
<svg version="1.0" xmlns="http://www.w3.org/2000/svg"
 width="640.000000pt" height="640.000000pt" viewBox="0 0 640.000000 640.000000"
 preserveAspectRatio="xMidYMid meet">

<g transform="translate(0.000000,640.000000) scale(0.100000,-0.100000)"
fill="#000000" stroke="none">
<path d="M2927 6389 c-1090 -96 -2074 -757 -2569 -1724 -228 -447 -338 -872
-355 -1370 -25 -740 210 -1460 668 -2050 469 -605 1152 -1030 1894 -1180 588
-119 1188 -71 1765 141 128 48 432 198 555 275 488 305 885 734 1151 1244 185
354 294 710 346 1135 19 153 16 563 -5 722 -124 936 -609 1731 -1377 2260
-530 365 -1175 562 -1825 557 -88 -1 -199 -5 -248 -10z m563 -290 c1150 -105
2157 -930 2494 -2043 92 -302 127 -536 127 -856 0 -345 -48 -633 -156 -949
-344 -1003 -1220 -1747 -2270 -1925 -236 -40 -584 -49 -820 -21 -795 94 -1508
503 -1989 1140 -392 520 -587 1101 -587 1750 0 464 92 868 291 1280 400 824
1186 1424 2085 1589 282 52 522 62 825 35z"/>
<path d="M2057 4439 c-99 -23 -212 -109 -260 -197 -91 -168 -68 -356 60 -493
158 -169 430 -173 593 -9 76 75 114 163 118 272 5 107 -13 173 -69 257 -93
139 -275 209 -442 170z"/>
<path d="M4110 4428 c-127 -45 -230 -151 -266 -276 -26 -88 -16 -210 23 -295
41 -87 113 -159 201 -200 62 -30 74 -32 172 -32 134 1 195 23 280 102 223 206
168 557 -106 685 -92 43 -210 49 -304 16z"/>
<path d="M2995 2710 c-624 -42 -1212 -261 -1722 -642 -126 -94 -143 -116 -143
-183 0 -46 5 -59 31 -90 40 -46 98 -62 148 -43 20 8 81 49 136 90 501 379
1122 588 1750 588 638 0 1256 -206 1755 -584 58 -44 122 -85 143 -93 84 -29
177 35 177 122 0 66 -13 89 -87 150 -88 74 -321 228 -449 299 -518 284 -1153
425 -1739 386z"/>
</g>
</svg>
